<?xml version="1.0" standalone="no"?><!DOCTYPE svg PUBLIC "-//W3C//DTD SVG 1.1//EN" "http://www.w3.org/Graphics/SVG/1.1/DTD/svg11.dtd"><svg t="1692240651572" class="icon" viewBox="0 0 1044 1024" version="1.1" xmlns="http://www.w3.org/2000/svg" p-id="4006" xmlns:xlink="http://www.w3.org/1999/xlink" width="203.90625" height="200"><path d="M595.02592 116.736q3.072 5.12 20.992 35.328t45.056 76.288 60.928 104.448 69.632 119.296 71.168 120.832 64.512 110.08 50.176 86.016 29.184 49.152q15.36 25.6 18.944 51.2t-3.072 46.08-23.552 33.28-41.472 11.776q-12.288 0-52.224-0.512t-96.256-0.512l-128 0-144.384 0q-73.728 0-146.432 0.512t-135.168 0.512l-109.568 0-69.632 0q-38.912 0-59.904-13.312t-28.16-34.304-1.536-45.568 19.968-46.08q7.168-11.264 28.16-46.08t50.688-84.48 65.536-109.568 72.704-121.856 71.68-120.32 62.464-105.472 46.08-77.824l21.504-35.84q14.336-22.528 37.376-34.304t47.616-11.776 47.616 10.752 37.376 32.256zM569.42592 317.44q0-12.288-5.632-23.04t-14.848-19.456-20.992-13.824-24.064-5.12q-23.552 0-43.52 18.432t-19.968 41.984l0 268.288q0 23.552 19.968 42.496t43.52 18.944q24.576 0 45.056-17.92t20.48-41.472l0-269.312zM503.88992 706.56q-26.624 0-45.568 18.432t-18.944 45.056 18.944 45.568 45.568 18.944 45.056-18.944 18.432-45.568-18.432-45.056-45.056-18.432z" p-id="4007"></path></svg>